<?xml version="1.0" encoding="utf-8" standalone="no"?>
<!DOCTYPE svg PUBLIC "-//W3C//DTD SVG 1.1//EN"
  "http://www.w3.org/Graphics/SVG/1.1/DTD/svg11.dtd">
<!-- Created with matplotlib (http://matplotlib.org/) -->
<svg height="810pt" version="1.1" viewBox="0 0 1440 810" width="1440pt" xmlns="http://www.w3.org/2000/svg" xmlns:xlink="http://www.w3.org/1999/xlink">
 <defs>
  <style type="text/css">
*{stroke-linecap:butt;stroke-linejoin:round;}
  </style>
 </defs>
 <g id="figure_1">
  <g id="patch_1">
   <path d="M 0 810 
L 1440 810 
L 1440 0 
L 0 0 
z
" style="fill:#ffffff;"/>
  </g>
  <g id="axes_1">
   <g id="patch_2">
    <path d="M 180 375.177273 
L 508.235294 375.177273 
L 508.235294 97.2 
L 180 97.2 
z
" style="fill:#ffffff;"/>
   </g>
   <g id="matplotlib.axis_1">
    <g id="xtick_1">
     <g id="line2d_1">
      <defs>
       <path d="M 0 0 
L 0 3.5 
" id="m875beb27f0" style="stroke:#000000;stroke-width:0.8;"/>
      </defs>
      <g>
       <use style="stroke:#000000;stroke-width:0.8;" x="194.919786" xlink:href="#m875beb27f0" y="375.177273"/>
      </g>
     </g>
    </g>
    <g id="xtick_2">
     <g id="line2d_2">
      <g>
       <use style="stroke:#000000;stroke-width:0.8;" x="254.59893" xlink:href="#m875beb27f0" y="375.177273"/>
      </g>
     </g>
    </g>
    <g id="xtick_3">
     <g id="line2d_3">
      <g>
       <use style="stroke:#000000;stroke-width:0.8;" x="314.278075" xlink:href="#m875beb27f0" y="375.177273"/>
      </g>
     </g>
    </g>
    <g id="xtick_4">
     <g id="line2d_4">
      <g>
       <use style="stroke:#000000;stroke-width:0.8;" x="373.957219" xlink:href="#m875beb27f0" y="375.177273"/>
      </g>
     </g>
    </g>
    <g id="xtick_5">
     <g id="line2d_5">
      <g>
       <use style="stroke:#000000;stroke-width:0.8;" x="433.636364" xlink:href="#m875beb27f0" y="375.177273"/>
      </g>
     </g>
    </g>
    <g id="xtick_6">
     <g id="line2d_6">
      <g>
       <use style="stroke:#000000;stroke-width:0.8;" x="493.315508" xlink:href="#m875beb27f0" y="375.177273"/>
      </g>
     </g>
    </g>
   </g>
   <g id="matplotlib.axis_2">
    <g id="ytick_1">
     <g id="line2d_7">
      <defs>
       <path d="M 0 0 
L -3.5 0 
" id="m47bfc3ed47" style="stroke:#000000;stroke-width:0.8;"/>
      </defs>
      <g>
       <use style="stroke:#000000;stroke-width:0.8;" x="180" xlink:href="#m47bfc3ed47" y="354.663711"/>
      </g>
     </g>
     <g id="text_1">
      <!-- −0.2 -->
      <defs>
       <path d="M 10.59375 35.5 
L 73.1875 35.5 
L 73.1875 27.203125 
L 10.59375 27.203125 
z
" id="DejaVuSans-2212"/>
       <path d="M 31.78125 66.40625 
Q 24.171875 66.40625 20.328125 58.90625 
Q 16.5 51.421875 16.5 36.375 
Q 16.5 21.390625 20.328125 13.890625 
Q 24.171875 6.390625 31.78125 6.390625 
Q 39.453125 6.390625 43.28125 13.890625 
Q 47.125 21.390625 47.125 36.375 
Q 47.125 51.421875 43.28125 58.90625 
Q 39.453125 66.40625 31.78125 66.40625 
z
M 31.78125 74.21875 
Q 44.046875 74.21875 50.515625 64.515625 
Q 56.984375 54.828125 56.984375 36.375 
Q 56.984375 17.96875 50.515625 8.265625 
Q 44.046875 -1.421875 31.78125 -1.421875 
Q 19.53125 -1.421875 13.0625 8.265625 
Q 6.59375 17.96875 6.59375 36.375 
Q 6.59375 54.828125 13.0625 64.515625 
Q 19.53125 74.21875 31.78125 74.21875 
z
" id="DejaVuSans-30"/>
       <path d="M 10.6875 12.40625 
L 21 12.40625 
L 21 0 
L 10.6875 0 
z
" id="DejaVuSans-2e"/>
       <path d="M 19.1875 8.296875 
L 53.609375 8.296875 
L 53.609375 0 
L 7.328125 0 
L 7.328125 8.296875 
Q 12.9375 14.109375 22.625 23.890625 
Q 32.328125 33.6875 34.8125 36.53125 
Q 39.546875 41.84375 41.421875 45.53125 
Q 43.3125 49.21875 43.3125 52.78125 
Q 43.3125 58.59375 39.234375 62.25 
Q 35.15625 65.921875 28.609375 65.921875 
Q 23.96875 65.921875 18.8125 64.3125 
Q 13.671875 62.703125 7.8125 59.421875 
L 7.8125 69.390625 
Q 13.765625 71.78125 18.9375 73 
Q 24.125 74.21875 28.421875 74.21875 
Q 39.75 74.21875 46.484375 68.546875 
Q 53.21875 62.890625 53.21875 53.421875 
Q 53.21875 48.921875 51.53125 44.890625 
Q 49.859375 40.875 45.40625 35.40625 
Q 44.1875 33.984375 37.640625 27.21875 
Q 31.109375 20.453125 19.1875 8.296875 
z
" id="DejaVuSans-32"/>
      </defs>
      <g transform="translate(148.717187 358.46293)scale(0.1 -0.1)">
       <use xlink:href="#DejaVuSans-2212"/>
       <use x="83.789062" xlink:href="#DejaVuSans-30"/>
       <use x="147.412109" xlink:href="#DejaVuSans-2e"/>
       <use x="179.199219" xlink:href="#DejaVuSans-32"/>
      </g>
     </g>
    </g>
    <g id="ytick_2">
     <g id="line2d_8">
      <g>
       <use style="stroke:#000000;stroke-width:0.8;" x="180" xlink:href="#m47bfc3ed47" y="316.529333"/>
      </g>
     </g>
     <g id="text_2">
      <!-- 0.0 -->
      <g transform="translate(157.096875 320.328552)scale(0.1 -0.1)">
       <use xlink:href="#DejaVuSans-30"/>
       <use x="63.623047" xlink:href="#DejaVuSans-2e"/>
       <use x="95.410156" xlink:href="#DejaVuSans-30"/>
      </g>
     </g>
    </g>
    <g id="ytick_3">
     <g id="line2d_9">
      <g>
       <use style="stroke:#000000;stroke-width:0.8;" x="180" xlink:href="#m47bfc3ed47" y="278.394955"/>
      </g>
     </g>
     <g id="text_3">
      <!-- 0.2 -->
      <g transform="translate(157.096875 282.194174)scale(0.1 -0.1)">
       <use xlink:href="#DejaVuSans-30"/>
       <use x="63.623047" xlink:href="#DejaVuSans-2e"/>
       <use x="95.410156" xlink:href="#DejaVuSans-32"/>
      </g>
     </g>
    </g>
    <g id="ytick_4">
     <g id="line2d_10">
      <g>
       <use style="stroke:#000000;stroke-width:0.8;" x="180" xlink:href="#m47bfc3ed47" y="240.260578"/>
      </g>
     </g>
     <g id="text_4">
      <!-- 0.4 -->
      <defs>
       <path d="M 37.796875 64.3125 
L 12.890625 25.390625 
L 37.796875 25.390625 
z
M 35.203125 72.90625 
L 47.609375 72.90625 
L 47.609375 25.390625 
L 58.015625 25.390625 
L 58.015625 17.1875 
L 47.609375 17.1875 
L 47.609375 0 
L 37.796875 0 
L 37.796875 17.1875 
L 4.890625 17.1875 
L 4.890625 26.703125 
z
" id="DejaVuSans-34"/>
      </defs>
      <g transform="translate(157.096875 244.059796)scale(0.1 -0.1)">
       <use xlink:href="#DejaVuSans-30"/>
       <use x="63.623047" xlink:href="#DejaVuSans-2e"/>
       <use x="95.410156" xlink:href="#DejaVuSans-34"/>
      </g>
     </g>
    </g>
    <g id="ytick_5">
     <g id="line2d_11">
      <g>
       <use style="stroke:#000000;stroke-width:0.8;" x="180" xlink:href="#m47bfc3ed47" y="202.1262"/>
      </g>
     </g>
     <g id="text_5">
      <!-- 0.6 -->
      <defs>
       <path d="M 33.015625 40.375 
Q 26.375 40.375 22.484375 35.828125 
Q 18.609375 31.296875 18.609375 23.390625 
Q 18.609375 15.53125 22.484375 10.953125 
Q 26.375 6.390625 33.015625 6.390625 
Q 39.65625 6.390625 43.53125 10.953125 
Q 47.40625 15.53125 47.40625 23.390625 
Q 47.40625 31.296875 43.53125 35.828125 
Q 39.65625 40.375 33.015625 40.375 
z
M 52.59375 71.296875 
L 52.59375 62.3125 
Q 48.875 64.0625 45.09375 64.984375 
Q 41.3125 65.921875 37.59375 65.921875 
Q 27.828125 65.921875 22.671875 59.328125 
Q 17.53125 52.734375 16.796875 39.40625 
Q 19.671875 43.65625 24.015625 45.921875 
Q 28.375 48.1875 33.59375 48.1875 
Q 44.578125 48.1875 50.953125 41.515625 
Q 57.328125 34.859375 57.328125 23.390625 
Q 57.328125 12.15625 50.6875 5.359375 
Q 44.046875 -1.421875 33.015625 -1.421875 
Q 20.359375 -1.421875 13.671875 8.265625 
Q 6.984375 17.96875 6.984375 36.375 
Q 6.984375 53.65625 15.1875 63.9375 
Q 23.390625 74.21875 37.203125 74.21875 
Q 40.921875 74.21875 44.703125 73.484375 
Q 48.484375 72.75 52.59375 71.296875 
z
" id="DejaVuSans-36"/>
      </defs>
      <g transform="translate(157.096875 205.925419)scale(0.1 -0.1)">
       <use xlink:href="#DejaVuSans-30"/>
       <use x="63.623047" xlink:href="#DejaVuSans-2e"/>
       <use x="95.410156" xlink:href="#DejaVuSans-36"/>
      </g>
     </g>
    </g>
    <g id="ytick_6">
     <g id="line2d_12">
      <g>
       <use style="stroke:#000000;stroke-width:0.8;" x="180" xlink:href="#m47bfc3ed47" y="163.991822"/>
      </g>
     </g>
     <g id="text_6">
      <!-- 0.8 -->
      <defs>
       <path d="M 31.78125 34.625 
Q 24.75 34.625 20.71875 30.859375 
Q 16.703125 27.09375 16.703125 20.515625 
Q 16.703125 13.921875 20.71875 10.15625 
Q 24.75 6.390625 31.78125 6.390625 
Q 38.8125 6.390625 42.859375 10.171875 
Q 46.921875 13.96875 46.921875 20.515625 
Q 46.921875 27.09375 42.890625 30.859375 
Q 38.875 34.625 31.78125 34.625 
z
M 21.921875 38.8125 
Q 15.578125 40.375 12.03125 44.71875 
Q 8.5 49.078125 8.5 55.328125 
Q 8.5 64.0625 14.71875 69.140625 
Q 20.953125 74.21875 31.78125 74.21875 
Q 42.671875 74.21875 48.875 69.140625 
Q 55.078125 64.0625 55.078125 55.328125 
Q 55.078125 49.078125 51.53125 44.71875 
Q 48 40.375 41.703125 38.8125 
Q 48.828125 37.15625 52.796875 32.3125 
Q 56.78125 27.484375 56.78125 20.515625 
Q 56.78125 9.90625 50.3125 4.234375 
Q 43.84375 -1.421875 31.78125 -1.421875 
Q 19.734375 -1.421875 13.25 4.234375 
Q 6.78125 9.90625 6.78125 20.515625 
Q 6.78125 27.484375 10.78125 32.3125 
Q 14.796875 37.15625 21.921875 38.8125 
z
M 18.3125 54.390625 
Q 18.3125 48.734375 21.84375 45.5625 
Q 25.390625 42.390625 31.78125 42.390625 
Q 38.140625 42.390625 41.71875 45.5625 
Q 45.3125 48.734375 45.3125 54.390625 
Q 45.3125 60.0625 41.71875 63.234375 
Q 38.140625 66.40625 31.78125 66.40625 
Q 25.390625 66.40625 21.84375 63.234375 
Q 18.3125 60.0625 18.3125 54.390625 
z
" id="DejaVuSans-38"/>
      </defs>
      <g transform="translate(157.096875 167.791041)scale(0.1 -0.1)">
       <use xlink:href="#DejaVuSans-30"/>
       <use x="63.623047" xlink:href="#DejaVuSans-2e"/>
       <use x="95.410156" xlink:href="#DejaVuSans-38"/>
      </g>
     </g>
    </g>
    <g id="ytick_7">
     <g id="line2d_13">
      <g>
       <use style="stroke:#000000;stroke-width:0.8;" x="180" xlink:href="#m47bfc3ed47" y="125.857445"/>
      </g>
     </g>
     <g id="text_7">
      <!-- 1.0 -->
      <defs>
       <path d="M 12.40625 8.296875 
L 28.515625 8.296875 
L 28.515625 63.921875 
L 10.984375 60.40625 
L 10.984375 69.390625 
L 28.421875 72.90625 
L 38.28125 72.90625 
L 38.28125 8.296875 
L 54.390625 8.296875 
L 54.390625 0 
L 12.40625 0 
z
" id="DejaVuSans-31"/>
      </defs>
      <g transform="translate(157.096875 129.656663)scale(0.1 -0.1)">
       <use xlink:href="#DejaVuSans-31"/>
       <use x="63.623047" xlink:href="#DejaVuSans-2e"/>
       <use x="95.410156" xlink:href="#DejaVuSans-30"/>
      </g>
     </g>
    </g>
   </g>
   <g id="line2d_14">
    <path clip-path="url(#pbd347c21c5)" d="M 194.919786 315.091387 
L 197.933884 226.745748 
L 200.947982 174.625012 
L 203.962081 149.760151 
L 206.976179 144.784301 
L 209.990277 153.717831 
L 213.004375 171.774874 
L 216.018474 195.189795 
L 219.032572 221.062139 
L 222.04667 247.218686 
L 225.060768 272.091281 
L 228.074866 294.609189 
L 231.088965 314.104787 
L 234.103063 330.231453 
L 237.117161 342.89259 
L 240.131259 352.180763 
L 243.145357 358.326005 
L 246.159456 361.652375 
L 249.173554 362.541942 
L 252.187652 361.405377 
L 255.20175 358.658429 
L 258.215848 354.703583 
L 261.229947 349.916245 
L 264.244045 344.634875 
L 267.258143 339.154487 
L 270.272241 333.723022 
L 273.286339 328.540119 
L 276.300438 323.757852 
L 279.314536 319.483038 
L 282.328634 315.780773 
L 285.342732 312.678868 
L 288.35683 310.172908 
L 291.370929 308.231671 
L 294.385027 306.802706 
L 297.399125 305.817863 
L 300.413223 305.198626 
L 303.427321 304.861099 
L 306.44142 304.720553 
L 309.455518 304.695439 
L 312.469616 304.710795 
L 315.483714 304.701028 
L 318.497812 304.612022 
L 321.511911 304.40258 
L 324.526009 304.04521 
L 327.540107 303.526276 
L 330.554205 302.845557 
L 333.568303 302.015261 
L 336.582402 301.058557 
L 339.5965 300.007693 
L 342.610598 298.901777 
L 345.624696 297.784304 
L 348.638794 296.70052 
L 351.652893 295.694702 
L 354.666991 294.807452 
L 357.681089 294.073102 
L 360.695187 293.517302 
L 363.709285 293.154893 
L 366.723384 292.988138 
L 369.737482 293.005385 
L 372.75158 293.18023 
L 375.765678 293.471244 
L 378.779776 293.822302 
L 381.793875 294.163551 
L 384.807973 294.413038 
L 387.822071 294.479014 
L 390.836169 294.262882 
L 393.850267 293.662778 
L 396.864366 292.577731 
L 399.878464 290.912326 
L 402.892562 288.581781 
L 405.90666 285.517326 
L 408.920758 281.671733 
L 411.934857 277.024827 
L 414.948955 271.588786 
L 417.963053 265.412994 
L 420.977151 258.588187 
L 423.991249 251.2496 
L 427.005348 243.578788 
L 430.019446 235.803744 
L 433.033544 228.196928 
L 436.047642 221.07075 
L 439.06174 214.770032 
L 442.075839 209.660919 
L 445.089937 206.115674 
L 448.104035 204.49274 
L 451.118133 205.111407 
L 454.132231 208.220378 
L 457.14633 213.959464 
L 460.160428 222.313621 
L 463.174526 233.058434 
L 466.188624 245.696154 
L 469.202722 259.381312 
L 472.216821 272.83486 
L 475.230919 284.245781 
L 478.245017 291.158989 
L 481.259115 290.34832 
L 484.273213 277.673346 
L 487.287312 247.918659 
L 490.30141 194.614224 
L 493.315508 109.835331 
" style="fill:none;stroke:#1f77b4;stroke-linecap:square;stroke-width:1.5;"/>
   </g>
   <g id="line2d_15">
    <path clip-path="url(#pbd347c21c5)" d="M 194.919786 316.529333 
L 197.933884 316.529331 
L 200.947982 316.529301 
L 203.962081 316.529172 
L 206.976179 316.528825 
L 209.990277 316.528093 
L 213.004375 316.526761 
L 216.018474 316.524567 
L 219.032572 316.521203 
L 222.04667 316.51631 
L 225.060768 316.509484 
L 228.074866 316.500272 
L 231.088965 316.488174 
L 234.103063 316.472641 
L 237.117161 316.45308 
L 240.131259 316.428846 
L 243.145357 316.399249 
L 246.159456 316.363549 
L 249.173554 316.320963 
L 252.187652 316.270655 
L 255.20175 316.211744 
L 258.215848 316.143301 
L 261.229947 316.064351 
L 264.244045 315.973867 
L 267.258143 315.87078 
L 270.272241 315.753969 
L 273.286339 315.622266 
L 276.300438 315.474458 
L 279.314536 315.309282 
L 282.328634 315.125428 
L 285.342732 314.921537 
L 288.35683 314.696206 
L 291.370929 314.44798 
L 294.385027 314.175359 
L 297.399125 313.876795 
L 300.413223 313.550693 
L 303.427321 313.195408 
L 306.44142 312.809249 
L 309.455518 312.390477 
L 312.469616 311.937307 
L 315.483714 311.447904 
L 318.497812 310.920386 
L 321.511911 310.352824 
L 324.526009 309.743242 
L 327.540107 309.089613 
L 330.554205 308.389866 
L 333.568303 307.641882 
L 336.582402 306.843492 
L 339.5965 305.992482 
L 342.610598 305.086588 
L 345.624696 304.123501 
L 348.638794 303.100861 
L 351.652893 302.016264 
L 354.666991 300.867256 
L 357.681089 299.651335 
L 360.695187 298.365954 
L 363.709285 297.008516 
L 366.723384 295.576377 
L 369.737482 294.066845 
L 372.75158 292.477181 
L 375.765678 290.804599 
L 378.779776 289.046264 
L 381.793875 287.199294 
L 384.807973 285.260758 
L 387.822071 283.227681 
L 390.836169 281.097035 
L 393.850267 278.86575 
L 396.864366 276.530705 
L 399.878464 274.088731 
L 402.892562 271.536613 
L 405.90666 268.871088 
L 408.920758 266.088845 
L 411.934857 263.186525 
L 414.948955 260.160722 
L 417.963053 257.007984 
L 420.977151 253.724807 
L 423.991249 250.307643 
L 427.005348 246.752896 
L 430.019446 243.056921 
L 433.033544 239.216025 
L 436.047642 235.22647 
L 439.06174 231.084469 
L 442.075839 226.786185 
L 445.089937 222.327737 
L 448.104035 217.705195 
L 451.118133 212.914581 
L 454.132231 207.951869 
L 457.14633 202.812986 
L 460.160428 197.493812 
L 463.174526 191.990178 
L 466.188624 186.297868 
L 469.202722 180.412618 
L 472.216821 174.330118 
L 475.230919 168.046008 
L 478.245017 161.555882 
L 481.259115 154.855286 
L 484.273213 147.939717 
L 487.287312 140.804626 
L 490.30141 133.445417 
L 493.315508 125.857445 
" style="fill:none;stroke:#ff7f0e;stroke-linecap:square;stroke-width:1.5;"/>
   </g>
   <g id="line2d_16">
    <defs>
     <path d="M 0 3 
C 0.795609 3 1.55874 2.683901 2.12132 2.12132 
C 2.683901 1.55874 3 0.795609 3 0 
C 3 -0.795609 2.683901 -1.55874 2.12132 -2.12132 
C 1.55874 -2.683901 0.795609 -3 0 -3 
C -0.795609 -3 -1.55874 -2.683901 -2.12132 -2.12132 
C -2.683901 -1.55874 -3 -0.795609 -3 0 
C -3 0.795609 -2.683901 1.55874 -2.12132 2.12132 
C -1.55874 2.683901 -0.795609 3 0 3 
z
" id="m7e91c02dc6" style="stroke:#2ca02c;"/>
    </defs>
    <g clip-path="url(#pbd347c21c5)">
     <use style="fill:#2ca02c;stroke:#2ca02c;" x="194.919786" xlink:href="#m7e91c02dc6" y="315.091387"/>
     <use style="fill:#2ca02c;stroke:#2ca02c;" x="228.074866" xlink:href="#m7e91c02dc6" y="294.609189"/>
     <use style="fill:#2ca02c;stroke:#2ca02c;" x="261.229947" xlink:href="#m7e91c02dc6" y="349.916245"/>
     <use style="fill:#2ca02c;stroke:#2ca02c;" x="294.385027" xlink:href="#m7e91c02dc6" y="306.802706"/>
     <use style="fill:#2ca02c;stroke:#2ca02c;" x="327.540107" xlink:href="#m7e91c02dc6" y="303.526276"/>
     <use style="fill:#2ca02c;stroke:#2ca02c;" x="360.695187" xlink:href="#m7e91c02dc6" y="293.517302"/>
     <use style="fill:#2ca02c;stroke:#2ca02c;" x="393.850267" xlink:href="#m7e91c02dc6" y="293.662778"/>
     <use style="fill:#2ca02c;stroke:#2ca02c;" x="427.005348" xlink:href="#m7e91c02dc6" y="243.578788"/>
     <use style="fill:#2ca02c;stroke:#2ca02c;" x="460.160428" xlink:href="#m7e91c02dc6" y="222.313621"/>
     <use style="fill:#2ca02c;stroke:#2ca02c;" x="493.315508" xlink:href="#m7e91c02dc6" y="109.835331"/>
    </g>
   </g>
   <g id="patch_3">
    <path d="M 180 375.177273 
L 180 97.2 
" style="fill:none;stroke:#000000;stroke-linecap:square;stroke-linejoin:miter;stroke-width:0.8;"/>
   </g>
   <g id="patch_4">
    <path d="M 508.235294 375.177273 
L 508.235294 97.2 
" style="fill:none;stroke:#000000;stroke-linecap:square;stroke-linejoin:miter;stroke-width:0.8;"/>
   </g>
   <g id="patch_5">
    <path d="M 180 375.177273 
L 508.235294 375.177273 
" style="fill:none;stroke:#000000;stroke-linecap:square;stroke-linejoin:miter;stroke-width:0.8;"/>
   </g>
   <g id="patch_6">
    <path d="M 180 97.2 
L 508.235294 97.2 
" style="fill:none;stroke:#000000;stroke-linecap:square;stroke-linejoin:miter;stroke-width:0.8;"/>
   </g>
  </g>
  <g id="axes_2">
   <g id="patch_7">
    <path d="M 573.882353 375.177273 
L 902.117647 375.177273 
L 902.117647 97.2 
L 573.882353 97.2 
z
" style="fill:#ffffff;"/>
   </g>
   <g id="matplotlib.axis_3">
    <g id="xtick_7">
     <g id="line2d_17">
      <g>
       <use style="stroke:#000000;stroke-width:0.8;" x="588.802139" xlink:href="#m875beb27f0" y="375.177273"/>
      </g>
     </g>
    </g>
    <g id="xtick_8">
     <g id="line2d_18">
      <g>
       <use style="stroke:#000000;stroke-width:0.8;" x="648.481283" xlink:href="#m875beb27f0" y="375.177273"/>
      </g>
     </g>
    </g>
    <g id="xtick_9">
     <g id="line2d_19">
      <g>
       <use style="stroke:#000000;stroke-width:0.8;" x="708.160428" xlink:href="#m875beb27f0" y="375.177273"/>
      </g>
     </g>
    </g>
    <g id="xtick_10">
     <g id="line2d_20">
      <g>
       <use style="stroke:#000000;stroke-width:0.8;" x="767.839572" xlink:href="#m875beb27f0" y="375.177273"/>
      </g>
     </g>
    </g>
    <g id="xtick_11">
     <g id="line2d_21">
      <g>
       <use style="stroke:#000000;stroke-width:0.8;" x="827.518717" xlink:href="#m875beb27f0" y="375.177273"/>
      </g>
     </g>
    </g>
    <g id="xtick_12">
     <g id="line2d_22">
      <g>
       <use style="stroke:#000000;stroke-width:0.8;" x="887.197861" xlink:href="#m875beb27f0" y="375.177273"/>
      </g>
     </g>
    </g>
   </g>
   <g id="matplotlib.axis_4">
    <g id="ytick_8">
     <g id="line2d_23">
      <g>
       <use style="stroke:#000000;stroke-width:0.8;" x="573.882353" xlink:href="#m47bfc3ed47" y="354.663711"/>
      </g>
     </g>
    </g>
    <g id="ytick_9">
     <g id="line2d_24">
      <g>
       <use style="stroke:#000000;stroke-width:0.8;" x="573.882353" xlink:href="#m47bfc3ed47" y="316.529333"/>
      </g>
     </g>
    </g>
    <g id="ytick_10">
     <g id="line2d_25">
      <g>
       <use style="stroke:#000000;stroke-width:0.8;" x="573.882353" xlink:href="#m47bfc3ed47" y="278.394955"/>
      </g>
     </g>
    </g>
    <g id="ytick_11">
     <g id="line2d_26">
      <g>
       <use style="stroke:#000000;stroke-width:0.8;" x="573.882353" xlink:href="#m47bfc3ed47" y="240.260578"/>
      </g>
     </g>
    </g>
    <g id="ytick_12">
     <g id="line2d_27">
      <g>
       <use style="stroke:#000000;stroke-width:0.8;" x="573.882353" xlink:href="#m47bfc3ed47" y="202.1262"/>
      </g>
     </g>
    </g>
    <g id="ytick_13">
     <g id="line2d_28">
      <g>
       <use style="stroke:#000000;stroke-width:0.8;" x="573.882353" xlink:href="#m47bfc3ed47" y="163.991822"/>
      </g>
     </g>
    </g>
    <g id="ytick_14">
     <g id="line2d_29">
      <g>
       <use style="stroke:#000000;stroke-width:0.8;" x="573.882353" xlink:href="#m47bfc3ed47" y="125.857445"/>
      </g>
     </g>
    </g>
   </g>
   <g id="line2d_30">
    <path clip-path="url(#p8200885964)" d="M 588.802139 313.235529 
L 591.816237 338.355162 
L 594.830335 352.57843 
L 597.844434 358.809937 
L 600.858532 359.409036 
L 603.87263 356.264239 
L 606.886728 350.860297 
L 609.900826 344.33845 
L 612.914925 337.550323 
L 615.929023 331.105935 
L 618.943121 325.416247 
L 621.957219 320.730662 
L 624.971317 317.169895 
L 627.985416 314.754567 
L 630.999514 313.429899 
L 634.013612 313.086837 
L 637.02771 313.579941 
L 640.041808 314.742337 
L 643.055907 316.398019 
L 646.070005 318.371788 
L 649.084103 320.497061 
L 652.098201 322.621819 
L 655.112299 324.612892 
L 658.126398 326.358811 
L 661.140496 327.771419 
L 664.154594 328.786418 
L 667.168692 329.363023 
L 670.18279 329.482886 
L 673.196889 329.148426 
L 676.210987 328.380692 
L 679.225085 327.21689 
L 682.239183 325.707678 
L 685.253281 323.914311 
L 688.26738 321.905748 
L 691.281478 319.755775 
L 694.295576 317.540224 
L 697.309674 315.334337 
L 700.323772 313.210329 
L 703.337871 311.235183 
L 706.351969 309.468723 
L 709.366067 307.961973 
L 712.380165 306.755824 
L 715.394263 305.880032 
L 718.408362 305.352533 
L 721.42246 305.179088 
L 724.436558 305.353243 
L 727.450656 305.856594 
L 730.464754 306.659345 
L 733.478853 307.721133 
L 736.492951 308.992096 
L 739.507049 310.414167 
L 742.521147 311.922544 
L 745.535246 313.447327 
L 748.549344 314.915265 
L 751.563442 316.251596 
L 754.57754 317.381928 
L 757.591638 318.234136 
L 760.605737 318.740223 
L 763.619835 318.838118 
L 766.633933 318.473371 
L 769.648031 317.600707 
L 772.662129 316.185401 
L 775.676228 314.204448 
L 778.690326 311.647496 
L 781.704424 308.517504 
L 784.718522 304.831115 
L 787.73262 300.618715 
L 790.746719 295.924156 
L 793.760817 290.804142 
L 796.774915 285.327261 
L 799.789013 279.572659 
L 802.803111 273.628372 
L 805.81721 267.589308 
L 808.831308 261.55491 
L 811.845406 255.626508 
L 814.859504 249.904404 
L 817.873602 244.484726 
L 820.887701 239.456082 
L 823.901799 234.896093 
L 826.915897 230.867853 
L 829.929995 227.41639 
L 832.944093 224.565223 
L 835.958192 222.313099 
L 838.97229 220.631022 
L 841.986388 219.459677 
L 845.000486 218.707403 
L 848.014584 218.248829 
L 851.028683 217.924338 
L 854.042781 217.540525 
L 857.056879 216.87183 
L 860.070977 215.663531 
L 863.085075 213.636311 
L 866.099174 210.492622 
L 869.113272 205.925083 
L 872.12737 199.627154 
L 875.141468 191.306376 
L 878.155566 180.700442 
L 881.169665 167.596415 
L 884.183763 151.853399 
L 887.197861 133.429023 
" style="fill:none;stroke:#1f77b4;stroke-linecap:square;stroke-width:1.5;"/>
   </g>
   <g id="line2d_31">
    <path clip-path="url(#p8200885964)" d="M 588.802139 316.529333 
L 591.816237 316.529331 
L 594.830335 316.529301 
L 597.844434 316.529172 
L 600.858532 316.528825 
L 603.87263 316.528093 
L 606.886728 316.526761 
L 609.900826 316.524567 
L 612.914925 316.521203 
L 615.929023 316.51631 
L 618.943121 316.509484 
L 621.957219 316.500272 
L 624.971317 316.488174 
L 627.985416 316.472641 
L 630.999514 316.45308 
L 634.013612 316.428846 
L 637.02771 316.399249 
L 640.041808 316.363549 
L 643.055907 316.320963 
L 646.070005 316.270655 
L 649.084103 316.211744 
L 652.098201 316.143301 
L 655.112299 316.064351 
L 658.126398 315.973867 
L 661.140496 315.87078 
L 664.154594 315.753969 
L 667.168692 315.622266 
L 670.18279 315.474458 
L 673.196889 315.309282 
L 676.210987 315.125428 
L 679.225085 314.921537 
L 682.239183 314.696206 
L 685.253281 314.44798 
L 688.26738 314.175359 
L 691.281478 313.876795 
L 694.295576 313.550693 
L 697.309674 313.195408 
L 700.323772 312.809249 
L 703.337871 312.390477 
L 706.351969 311.937307 
L 709.366067 311.447904 
L 712.380165 310.920386 
L 715.394263 310.352824 
L 718.408362 309.743242 
L 721.42246 309.089613 
L 724.436558 308.389866 
L 727.450656 307.641882 
L 730.464754 306.843492 
L 733.478853 305.992482 
L 736.492951 305.086588 
L 739.507049 304.123501 
L 742.521147 303.100861 
L 745.535246 302.016264 
L 748.549344 300.867256 
L 751.563442 299.651335 
L 754.57754 298.365954 
L 757.591638 297.008516 
L 760.605737 295.576377 
L 763.619835 294.066845 
L 766.633933 292.477181 
L 769.648031 290.804599 
L 772.662129 289.046264 
L 775.676228 287.199294 
L 778.690326 285.260758 
L 781.704424 283.227681 
L 784.718522 281.097035 
L 787.73262 278.86575 
L 790.746719 276.530705 
L 793.760817 274.088731 
L 796.774915 271.536613 
L 799.789013 268.871088 
L 802.803111 266.088845 
L 805.81721 263.186525 
L 808.831308 260.160722 
L 811.845406 257.007984 
L 814.859504 253.724807 
L 817.873602 250.307643 
L 820.887701 246.752896 
L 823.901799 243.056921 
L 826.915897 239.216025 
L 829.929995 235.22647 
L 832.944093 231.084469 
L 835.958192 226.786185 
L 838.97229 222.327737 
L 841.986388 217.705195 
L 845.000486 212.914581 
L 848.014584 207.951869 
L 851.028683 202.812986 
L 854.042781 197.493812 
L 857.056879 191.990178 
L 860.070977 186.297868 
L 863.085075 180.412618 
L 866.099174 174.330118 
L 869.113272 168.046008 
L 872.12737 161.555882 
L 875.141468 154.855286 
L 878.155566 147.939717 
L 881.169665 140.804626 
L 884.183763 133.445417 
L 887.197861 125.857445 
" style="fill:none;stroke:#ff7f0e;stroke-linecap:square;stroke-width:1.5;"/>
   </g>
   <g id="line2d_32">
    <g clip-path="url(#p8200885964)">
     <use style="fill:#2ca02c;stroke:#2ca02c;" x="588.802139" xlink:href="#m7e91c02dc6" y="313.235529"/>
     <use style="fill:#2ca02c;stroke:#2ca02c;" x="621.957219" xlink:href="#m7e91c02dc6" y="320.730662"/>
     <use style="fill:#2ca02c;stroke:#2ca02c;" x="655.112299" xlink:href="#m7e91c02dc6" y="324.612892"/>
     <use style="fill:#2ca02c;stroke:#2ca02c;" x="688.26738" xlink:href="#m7e91c02dc6" y="321.905748"/>
     <use style="fill:#2ca02c;stroke:#2ca02c;" x="721.42246" xlink:href="#m7e91c02dc6" y="305.179088"/>
     <use style="fill:#2ca02c;stroke:#2ca02c;" x="754.57754" xlink:href="#m7e91c02dc6" y="317.381928"/>
     <use style="fill:#2ca02c;stroke:#2ca02c;" x="787.73262" xlink:href="#m7e91c02dc6" y="300.618715"/>
     <use style="fill:#2ca02c;stroke:#2ca02c;" x="820.887701" xlink:href="#m7e91c02dc6" y="239.456082"/>
     <use style="fill:#2ca02c;stroke:#2ca02c;" x="854.042781" xlink:href="#m7e91c02dc6" y="217.540525"/>
     <use style="fill:#2ca02c;stroke:#2ca02c;" x="887.197861" xlink:href="#m7e91c02dc6" y="133.429023"/>
    </g>
   </g>
   <g id="patch_8">
    <path d="M 573.882353 375.177273 
L 573.882353 97.2 
" style="fill:none;stroke:#000000;stroke-linecap:square;stroke-linejoin:miter;stroke-width:0.8;"/>
   </g>
   <g id="patch_9">
    <path d="M 902.117647 375.177273 
L 902.117647 97.2 
" style="fill:none;stroke:#000000;stroke-linecap:square;stroke-linejoin:miter;stroke-width:0.8;"/>
   </g>
   <g id="patch_10">
    <path d="M 573.882353 375.177273 
L 902.117647 375.177273 
" style="fill:none;stroke:#000000;stroke-linecap:square;stroke-linejoin:miter;stroke-width:0.8;"/>
   </g>
   <g id="patch_11">
    <path d="M 573.882353 97.2 
L 902.117647 97.2 
" style="fill:none;stroke:#000000;stroke-linecap:square;stroke-linejoin:miter;stroke-width:0.8;"/>
   </g>
  </g>
  <g id="axes_3">
   <g id="patch_12">
    <path d="M 967.764706 375.177273 
L 1296 375.177273 
L 1296 97.2 
L 967.764706 97.2 
z
" style="fill:#ffffff;"/>
   </g>
   <g id="matplotlib.axis_5">
    <g id="xtick_13">
     <g id="line2d_33">
      <g>
       <use style="stroke:#000000;stroke-width:0.8;" x="982.684492" xlink:href="#m875beb27f0" y="375.177273"/>
      </g>
     </g>
    </g>
    <g id="xtick_14">
     <g id="line2d_34">
      <g>
       <use style="stroke:#000000;stroke-width:0.8;" x="1042.363636" xlink:href="#m875beb27f0" y="375.177273"/>
      </g>
     </g>
    </g>
    <g id="xtick_15">
     <g id="line2d_35">
      <g>
       <use style="stroke:#000000;stroke-width:0.8;" x="1102.042781" xlink:href="#m875beb27f0" y="375.177273"/>
      </g>
     </g>
    </g>
    <g id="xtick_16">
     <g id="line2d_36">
      <g>
       <use style="stroke:#000000;stroke-width:0.8;" x="1161.721925" xlink:href="#m875beb27f0" y="375.177273"/>
      </g>
     </g>
    </g>
    <g id="xtick_17">
     <g id="line2d_37">
      <g>
       <use style="stroke:#000000;stroke-width:0.8;" x="1221.40107" xlink:href="#m875beb27f0" y="375.177273"/>
      </g>
     </g>
    </g>
    <g id="xtick_18">
     <g id="line2d_38">
      <g>
       <use style="stroke:#000000;stroke-width:0.8;" x="1281.080214" xlink:href="#m875beb27f0" y="375.177273"/>
      </g>
     </g>
    </g>
   </g>
   <g id="matplotlib.axis_6">
    <g id="ytick_15">
     <g id="line2d_39">
      <g>
       <use style="stroke:#000000;stroke-width:0.8;" x="967.764706" xlink:href="#m47bfc3ed47" y="354.663711"/>
      </g>
     </g>
    </g>
    <g id="ytick_16">
     <g id="line2d_40">
      <g>
       <use style="stroke:#000000;stroke-width:0.8;" x="967.764706" xlink:href="#m47bfc3ed47" y="316.529333"/>
      </g>
     </g>
    </g>
    <g id="ytick_17">
     <g id="line2d_41">
      <g>
       <use style="stroke:#000000;stroke-width:0.8;" x="967.764706" xlink:href="#m47bfc3ed47" y="278.394955"/>
      </g>
     </g>
    </g>
    <g id="ytick_18">
     <g id="line2d_42">
      <g>
       <use style="stroke:#000000;stroke-width:0.8;" x="967.764706" xlink:href="#m47bfc3ed47" y="240.260578"/>
      </g>
     </g>
    </g>
    <g id="ytick_19">
     <g id="line2d_43">
      <g>
       <use style="stroke:#000000;stroke-width:0.8;" x="967.764706" xlink:href="#m47bfc3ed47" y="202.1262"/>
      </g>
     </g>
    </g>
    <g id="ytick_20">
     <g id="line2d_44">
      <g>
       <use style="stroke:#000000;stroke-width:0.8;" x="967.764706" xlink:href="#m47bfc3ed47" y="163.991822"/>
      </g>
     </g>
    </g>
    <g id="ytick_21">
     <g id="line2d_45">
      <g>
       <use style="stroke:#000000;stroke-width:0.8;" x="967.764706" xlink:href="#m47bfc3ed47" y="125.857445"/>
      </g>
     </g>
    </g>
   </g>
   <g id="line2d_46">
    <path clip-path="url(#p4c00236794)" d="M 982.684492 323.362174 
L 985.69859 303.395523 
L 988.712688 291.451763 
L 991.726787 285.654898 
L 994.740885 284.436802 
L 997.754983 286.499877 
L 1000.769081 290.783042 
L 1003.783179 296.430883 
L 1006.797278 302.765712 
L 1009.811376 309.26238 
L 1012.825474 315.525629 
L 1015.839572 321.269809 
L 1018.85367 326.300795 
L 1021.867769 330.499936 
L 1024.881867 333.809872 
L 1027.895965 336.222087 
L 1030.910063 337.766041 
L 1033.924161 338.499754 
L 1036.93826 338.50172 
L 1039.952358 337.864014 
L 1042.966456 336.686504 
L 1045.980554 335.072036 
L 1048.994652 333.122509 
L 1052.008751 330.935737 
L 1055.022849 328.603008 
L 1058.036947 326.207271 
L 1061.051045 323.821858 
L 1064.065143 321.509669 
L 1067.079242 319.32278 
L 1070.09334 317.302368 
L 1073.107438 315.478948 
L 1076.121536 313.872823 
L 1079.135634 312.494735 
L 1082.149733 311.346656 
L 1085.163831 310.422688 
L 1088.177929 309.710031 
L 1091.192027 309.189999 
L 1094.206125 308.839047 
L 1097.220224 308.62979 
L 1100.234322 308.531994 
L 1103.24842 308.513527 
L 1106.262518 308.541239 
L 1109.276616 308.581784 
L 1112.290715 308.602355 
L 1115.304813 308.57134 
L 1118.318911 308.45888 
L 1121.333009 308.237352 
L 1124.347107 307.881741 
L 1127.361206 307.369942 
L 1130.375304 306.682964 
L 1133.389402 305.805058 
L 1136.4035 304.723771 
L 1139.417598 303.429928 
L 1142.431697 301.917556 
L 1145.445795 300.183756 
L 1148.459893 298.228534 
L 1151.473991 296.054587 
L 1154.488089 293.66708 
L 1157.502188 291.073392 
L 1160.516286 288.282868 
L 1163.530384 285.306558 
L 1166.544482 282.156979 
L 1169.55858 278.847886 
L 1172.572679 275.394063 
L 1175.586777 271.811151 
L 1178.600875 268.115496 
L 1181.614973 264.324037 
L 1184.629071 260.454225 
L 1187.64317 256.523979 
L 1190.657268 252.551663 
L 1193.671366 248.556096 
L 1196.685464 244.556568 
L 1199.699562 240.572869 
L 1202.713661 236.625308 
L 1205.727759 232.734704 
L 1208.741857 228.922341 
L 1211.755955 225.209847 
L 1214.770053 221.618994 
L 1217.784152 218.171364 
L 1220.79825 214.887872 
L 1223.812348 211.788085 
L 1226.826446 208.889322 
L 1229.840544 206.20546 
L 1232.854643 203.745422 
L 1235.868741 201.511276 
L 1238.882839 199.495886 
L 1241.896937 197.680062 
L 1244.911035 196.029126 
L 1247.925134 194.488819 
L 1250.939232 192.98048 
L 1253.95333 191.395399 
L 1256.967428 189.58825 
L 1259.981526 187.369517 
L 1262.995625 184.496794 
L 1266.009723 180.664856 
L 1269.023821 175.494379 
L 1272.037919 168.519189 
L 1275.052018 159.171898 
L 1278.066116 146.767799 
L 1281.080214 130.486862 
" style="fill:none;stroke:#1f77b4;stroke-linecap:square;stroke-width:1.5;"/>
   </g>
   <g id="line2d_47">
    <path clip-path="url(#p4c00236794)" d="M 982.684492 316.529333 
L 985.69859 316.529331 
L 988.712688 316.529301 
L 991.726787 316.529172 
L 994.740885 316.528825 
L 997.754983 316.528093 
L 1000.769081 316.526761 
L 1003.783179 316.524567 
L 1006.797278 316.521203 
L 1009.811376 316.51631 
L 1012.825474 316.509484 
L 1015.839572 316.500272 
L 1018.85367 316.488174 
L 1021.867769 316.472641 
L 1024.881867 316.45308 
L 1027.895965 316.428846 
L 1030.910063 316.399249 
L 1033.924161 316.363549 
L 1036.93826 316.320963 
L 1039.952358 316.270655 
L 1042.966456 316.211744 
L 1045.980554 316.143301 
L 1048.994652 316.064351 
L 1052.008751 315.973867 
L 1055.022849 315.87078 
L 1058.036947 315.753969 
L 1061.051045 315.622266 
L 1064.065143 315.474458 
L 1067.079242 315.309282 
L 1070.09334 315.125428 
L 1073.107438 314.921537 
L 1076.121536 314.696206 
L 1079.135634 314.44798 
L 1082.149733 314.175359 
L 1085.163831 313.876795 
L 1088.177929 313.550693 
L 1091.192027 313.195408 
L 1094.206125 312.809249 
L 1097.220224 312.390477 
L 1100.234322 311.937307 
L 1103.24842 311.447904 
L 1106.262518 310.920386 
L 1109.276616 310.352824 
L 1112.290715 309.743242 
L 1115.304813 309.089613 
L 1118.318911 308.389866 
L 1121.333009 307.641882 
L 1124.347107 306.843492 
L 1127.361206 305.992482 
L 1130.375304 305.086588 
L 1133.389402 304.123501 
L 1136.4035 303.100861 
L 1139.417598 302.016264 
L 1142.431697 300.867256 
L 1145.445795 299.651335 
L 1148.459893 298.365954 
L 1151.473991 297.008516 
L 1154.488089 295.576377 
L 1157.502188 294.066845 
L 1160.516286 292.477181 
L 1163.530384 290.804599 
L 1166.544482 289.046264 
L 1169.55858 287.199294 
L 1172.572679 285.260758 
L 1175.586777 283.227681 
L 1178.600875 281.097035 
L 1181.614973 278.86575 
L 1184.629071 276.530705 
L 1187.64317 274.088731 
L 1190.657268 271.536613 
L 1193.671366 268.871088 
L 1196.685464 266.088845 
L 1199.699562 263.186525 
L 1202.713661 260.160722 
L 1205.727759 257.007984 
L 1208.741857 253.724807 
L 1211.755955 250.307643 
L 1214.770053 246.752896 
L 1217.784152 243.056921 
L 1220.79825 239.216025 
L 1223.812348 235.22647 
L 1226.826446 231.084469 
L 1229.840544 226.786185 
L 1232.854643 222.327737 
L 1235.868741 217.705195 
L 1238.882839 212.914581 
L 1241.896937 207.951869 
L 1244.911035 202.812986 
L 1247.925134 197.493812 
L 1250.939232 191.990178 
L 1253.95333 186.297868 
L 1256.967428 180.412618 
L 1259.981526 174.330118 
L 1262.995625 168.046008 
L 1266.009723 161.555882 
L 1269.023821 154.855286 
L 1272.037919 147.939717 
L 1275.052018 140.804626 
L 1278.066116 133.445417 
L 1281.080214 125.857445 
" style="fill:none;stroke:#ff7f0e;stroke-linecap:square;stroke-width:1.5;"/>
   </g>
   <g id="line2d_48">
    <g clip-path="url(#p4c00236794)">
     <use style="fill:#2ca02c;stroke:#2ca02c;" x="982.684492" xlink:href="#m7e91c02dc6" y="323.362174"/>
     <use style="fill:#2ca02c;stroke:#2ca02c;" x="1015.839572" xlink:href="#m7e91c02dc6" y="321.269809"/>
     <use style="fill:#2ca02c;stroke:#2ca02c;" x="1048.994652" xlink:href="#m7e91c02dc6" y="333.122509"/>
     <use style="fill:#2ca02c;stroke:#2ca02c;" x="1082.149733" xlink:href="#m7e91c02dc6" y="311.346656"/>
     <use style="fill:#2ca02c;stroke:#2ca02c;" x="1115.304813" xlink:href="#m7e91c02dc6" y="308.57134"/>
     <use style="fill:#2ca02c;stroke:#2ca02c;" x="1148.459893" xlink:href="#m7e91c02dc6" y="298.228534"/>
     <use style="fill:#2ca02c;stroke:#2ca02c;" x="1181.614973" xlink:href="#m7e91c02dc6" y="264.324037"/>
     <use style="fill:#2ca02c;stroke:#2ca02c;" x="1214.770053" xlink:href="#m7e91c02dc6" y="221.618994"/>
     <use style="fill:#2ca02c;stroke:#2ca02c;" x="1247.925134" xlink:href="#m7e91c02dc6" y="194.488819"/>
     <use style="fill:#2ca02c;stroke:#2ca02c;" x="1281.080214" xlink:href="#m7e91c02dc6" y="130.486862"/>
    </g>
   </g>
   <g id="patch_13">
    <path d="M 967.764706 375.177273 
L 967.764706 97.2 
" style="fill:none;stroke:#000000;stroke-linecap:square;stroke-linejoin:miter;stroke-width:0.8;"/>
   </g>
   <g id="patch_14">
    <path d="M 1296 375.177273 
L 1296 97.2 
" style="fill:none;stroke:#000000;stroke-linecap:square;stroke-linejoin:miter;stroke-width:0.8;"/>
   </g>
   <g id="patch_15">
    <path d="M 967.764706 375.177273 
L 1296 375.177273 
" style="fill:none;stroke:#000000;stroke-linecap:square;stroke-linejoin:miter;stroke-width:0.8;"/>
   </g>
   <g id="patch_16">
    <path d="M 967.764706 97.2 
L 1296 97.2 
" style="fill:none;stroke:#000000;stroke-linecap:square;stroke-linejoin:miter;stroke-width:0.8;"/>
   </g>
  </g>
  <g id="axes_4">
   <g id="patch_17">
    <path d="M 180 708.75 
L 508.235294 708.75 
L 508.235294 430.772727 
L 180 430.772727 
z
" style="fill:#ffffff;"/>
   </g>
   <g id="matplotlib.axis_7">
    <g id="xtick_19">
     <g id="line2d_49">
      <g>
       <use style="stroke:#000000;stroke-width:0.8;" x="194.919786" xlink:href="#m875beb27f0" y="708.75"/>
      </g>
     </g>
     <g id="text_8">
      <!-- 0.0 -->
      <g transform="translate(186.968224 723.348437)scale(0.1 -0.1)">
       <use xlink:href="#DejaVuSans-30"/>
       <use x="63.623047" xlink:href="#DejaVuSans-2e"/>
       <use x="95.410156" xlink:href="#DejaVuSans-30"/>
      </g>
     </g>
    </g>
    <g id="xtick_20">
     <g id="line2d_50">
      <g>
       <use style="stroke:#000000;stroke-width:0.8;" x="254.59893" xlink:href="#m875beb27f0" y="708.75"/>
      </g>
     </g>
     <g id="text_9">
      <!-- 0.2 -->
      <g transform="translate(246.647368 723.348437)scale(0.1 -0.1)">
       <use xlink:href="#DejaVuSans-30"/>
       <use x="63.623047" xlink:href="#DejaVuSans-2e"/>
       <use x="95.410156" xlink:href="#DejaVuSans-32"/>
      </g>
     </g>
    </g>
    <g id="xtick_21">
     <g id="line2d_51">
      <g>
       <use style="stroke:#000000;stroke-width:0.8;" x="314.278075" xlink:href="#m875beb27f0" y="708.75"/>
      </g>
     </g>
     <g id="text_10">
      <!-- 0.4 -->
      <g transform="translate(306.326512 723.348437)scale(0.1 -0.1)">
       <use xlink:href="#DejaVuSans-30"/>
       <use x="63.623047" xlink:href="#DejaVuSans-2e"/>
       <use x="95.410156" xlink:href="#DejaVuSans-34"/>
      </g>
     </g>
    </g>
    <g id="xtick_22">
     <g id="line2d_52">
      <g>
       <use style="stroke:#000000;stroke-width:0.8;" x="373.957219" xlink:href="#m875beb27f0" y="708.75"/>
      </g>
     </g>
     <g id="text_11">
      <!-- 0.6 -->
      <g transform="translate(366.005657 723.348437)scale(0.1 -0.1)">
       <use xlink:href="#DejaVuSans-30"/>
       <use x="63.623047" xlink:href="#DejaVuSans-2e"/>
       <use x="95.410156" xlink:href="#DejaVuSans-36"/>
      </g>
     </g>
    </g>
    <g id="xtick_23">
     <g id="line2d_53">
      <g>
       <use style="stroke:#000000;stroke-width:0.8;" x="433.636364" xlink:href="#m875beb27f0" y="708.75"/>
      </g>
     </g>
     <g id="text_12">
      <!-- 0.8 -->
      <g transform="translate(425.684801 723.348437)scale(0.1 -0.1)">
       <use xlink:href="#DejaVuSans-30"/>
       <use x="63.623047" xlink:href="#DejaVuSans-2e"/>
       <use x="95.410156" xlink:href="#DejaVuSans-38"/>
      </g>
     </g>
    </g>
    <g id="xtick_24">
     <g id="line2d_54">
      <g>
       <use style="stroke:#000000;stroke-width:0.8;" x="493.315508" xlink:href="#m875beb27f0" y="708.75"/>
      </g>
     </g>
     <g id="text_13">
      <!-- 1.0 -->
      <g transform="translate(485.363946 723.348437)scale(0.1 -0.1)">
       <use xlink:href="#DejaVuSans-31"/>
       <use x="63.623047" xlink:href="#DejaVuSans-2e"/>
       <use x="95.410156" xlink:href="#DejaVuSans-30"/>
      </g>
     </g>
    </g>
   </g>
   <g id="matplotlib.axis_8">
    <g id="ytick_22">
     <g id="line2d_55">
      <g>
       <use style="stroke:#000000;stroke-width:0.8;" x="180" xlink:href="#m47bfc3ed47" y="688.236438"/>
      </g>
     </g>
     <g id="text_14">
      <!-- −0.2 -->
      <g transform="translate(148.717187 692.035657)scale(0.1 -0.1)">
       <use xlink:href="#DejaVuSans-2212"/>
       <use x="83.789062" xlink:href="#DejaVuSans-30"/>
       <use x="147.412109" xlink:href="#DejaVuSans-2e"/>
       <use x="179.199219" xlink:href="#DejaVuSans-32"/>
      </g>
     </g>
    </g>
    <g id="ytick_23">
     <g id="line2d_56">
      <g>
       <use style="stroke:#000000;stroke-width:0.8;" x="180" xlink:href="#m47bfc3ed47" y="650.10206"/>
      </g>
     </g>
     <g id="text_15">
      <!-- 0.0 -->
      <g transform="translate(157.096875 653.901279)scale(0.1 -0.1)">
       <use xlink:href="#DejaVuSans-30"/>
       <use x="63.623047" xlink:href="#DejaVuSans-2e"/>
       <use x="95.410156" xlink:href="#DejaVuSans-30"/>
      </g>
     </g>
    </g>
    <g id="ytick_24">
     <g id="line2d_57">
      <g>
       <use style="stroke:#000000;stroke-width:0.8;" x="180" xlink:href="#m47bfc3ed47" y="611.967683"/>
      </g>
     </g>
     <g id="text_16">
      <!-- 0.2 -->
      <g transform="translate(157.096875 615.766901)scale(0.1 -0.1)">
       <use xlink:href="#DejaVuSans-30"/>
       <use x="63.623047" xlink:href="#DejaVuSans-2e"/>
       <use x="95.410156" xlink:href="#DejaVuSans-32"/>
      </g>
     </g>
    </g>
    <g id="ytick_25">
     <g id="line2d_58">
      <g>
       <use style="stroke:#000000;stroke-width:0.8;" x="180" xlink:href="#m47bfc3ed47" y="573.833305"/>
      </g>
     </g>
     <g id="text_17">
      <!-- 0.4 -->
      <g transform="translate(157.096875 577.632524)scale(0.1 -0.1)">
       <use xlink:href="#DejaVuSans-30"/>
       <use x="63.623047" xlink:href="#DejaVuSans-2e"/>
       <use x="95.410156" xlink:href="#DejaVuSans-34"/>
      </g>
     </g>
    </g>
    <g id="ytick_26">
     <g id="line2d_59">
      <g>
       <use style="stroke:#000000;stroke-width:0.8;" x="180" xlink:href="#m47bfc3ed47" y="535.698927"/>
      </g>
     </g>
     <g id="text_18">
      <!-- 0.6 -->
      <g transform="translate(157.096875 539.498146)scale(0.1 -0.1)">
       <use xlink:href="#DejaVuSans-30"/>
       <use x="63.623047" xlink:href="#DejaVuSans-2e"/>
       <use x="95.410156" xlink:href="#DejaVuSans-36"/>
      </g>
     </g>
    </g>
    <g id="ytick_27">
     <g id="line2d_60">
      <g>
       <use style="stroke:#000000;stroke-width:0.8;" x="180" xlink:href="#m47bfc3ed47" y="497.56455"/>
      </g>
     </g>
     <g id="text_19">
      <!-- 0.8 -->
      <g transform="translate(157.096875 501.363768)scale(0.1 -0.1)">
       <use xlink:href="#DejaVuSans-30"/>
       <use x="63.623047" xlink:href="#DejaVuSans-2e"/>
       <use x="95.410156" xlink:href="#DejaVuSans-38"/>
      </g>
     </g>
    </g>
    <g id="ytick_28">
     <g id="line2d_61">
      <g>
       <use style="stroke:#000000;stroke-width:0.8;" x="180" xlink:href="#m47bfc3ed47" y="459.430172"/>
      </g>
     </g>
     <g id="text_20">
      <!-- 1.0 -->
      <g transform="translate(157.096875 463.229391)scale(0.1 -0.1)">
       <use xlink:href="#DejaVuSans-31"/>
       <use x="63.623047" xlink:href="#DejaVuSans-2e"/>
       <use x="95.410156" xlink:href="#DejaVuSans-30"/>
      </g>
     </g>
    </g>
   </g>
   <g id="line2d_62">
    <path clip-path="url(#p8ee946d5ac)" d="M 194.919786 639.476551 
L 197.933884 629.468816 
L 200.947982 624.341407 
L 203.962081 622.601347 
L 206.976179 623.075182 
L 209.990277 624.859577 
L 213.004375 627.277435 
L 216.018474 629.839084 
L 219.032572 632.20816 
L 222.04667 634.171772 
L 225.060768 635.614596 
L 228.074866 636.496546 
L 231.088965 636.8337 
L 234.103063 636.682168 
L 237.117161 636.1246 
L 240.131259 635.259087 
L 243.145357 634.190163 
L 246.159456 633.021692 
L 249.173554 631.851408 
L 252.187652 630.766895 
L 255.20175 629.842815 
L 258.215848 629.139204 
L 261.229947 628.70067 
L 264.244045 628.556341 
L 267.258143 628.720422 
L 270.272241 629.193238 
L 273.286339 629.962643 
L 276.300438 631.005691 
L 279.314536 632.290493 
L 282.328634 633.778154 
L 285.342732 635.424734 
L 288.35683 637.183179 
L 291.370929 639.005147 
L 294.385027 640.842707 
L 297.399125 642.649865 
L 300.413223 644.383896 
L 303.427321 646.006451 
L 306.44142 647.484442 
L 309.455518 648.790687 
L 312.469616 649.90431 
L 315.483714 650.810919 
L 318.497812 651.502548 
L 321.511911 651.977395 
L 324.526009 652.239367 
L 327.540107 652.297444 
L 330.554205 652.164908 
L 333.568303 651.858439 
L 336.582402 651.397128 
L 339.5965 650.801415 
L 342.610598 650.092006 
L 345.624696 649.288787 
L 348.638794 648.409766 
L 351.652893 647.470081 
L 354.666991 646.481102 
L 357.681089 645.449656 
L 360.695187 644.377398 
L 363.709285 643.260361 
L 366.723384 642.088704 
L 369.737482 640.846672 
L 372.75158 639.512789 
L 375.765678 638.060294 
L 378.779776 636.457822 
L 381.793875 634.670342 
L 384.807973 632.660324 
L 387.822071 630.389159 
L 390.836169 627.818776 
L 393.850267 624.913462 
L 396.864366 621.64184 
L 399.878464 617.978955 
L 402.892562 613.908442 
L 405.90666 609.424695 
L 408.920758 604.534988 
L 411.934857 599.261452 
L 414.948955 593.642839 
L 417.963053 587.735956 
L 420.977151 581.616675 
L 423.991249 575.380378 
L 427.005348 569.141723 
L 430.019446 563.033565 
L 433.033544 557.204878 
L 436.047642 551.817508 
L 439.06174 547.041555 
L 442.075839 543.049192 
L 445.089937 540.006696 
L 448.104035 538.06445 
L 451.118133 537.344676 
L 454.132231 537.926622 
L 457.14633 539.828919 
L 460.160428 542.988803 
L 463.174526 547.237888 
L 466.188624 552.274136 
L 469.202722 557.629679 
L 472.216821 562.634104 
L 475.230919 566.372803 
L 478.245017 567.639972 
L 481.259115 564.885819 
L 484.273213 556.157503 
L 487.287312 539.033348 
L 490.30141 510.549792 
L 493.315508 467.120571 
" style="fill:none;stroke:#1f77b4;stroke-linecap:square;stroke-width:1.5;"/>
   </g>
   <g id="line2d_63">
    <path clip-path="url(#p8ee946d5ac)" d="M 194.919786 650.10206 
L 197.933884 650.102058 
L 200.947982 650.102029 
L 203.962081 650.1019 
L 206.976179 650.101552 
L 209.990277 650.10082 
L 213.004375 650.099488 
L 216.018474 650.097295 
L 219.032572 650.09393 
L 222.04667 650.089037 
L 225.060768 650.082211 
L 228.074866 650.072999 
L 231.088965 650.060901 
L 234.103063 650.045369 
L 237.117161 650.025807 
L 240.131259 650.001573 
L 243.145357 649.971976 
L 246.159456 649.936277 
L 249.173554 649.89369 
L 252.187652 649.843382 
L 255.20175 649.784471 
L 258.215848 649.716029 
L 261.229947 649.637078 
L 264.244045 649.546595 
L 267.258143 649.443507 
L 270.272241 649.326696 
L 273.286339 649.194994 
L 276.300438 649.047185 
L 279.314536 648.882009 
L 282.328634 648.698155 
L 285.342732 648.494264 
L 288.35683 648.268933 
L 291.370929 648.020707 
L 294.385027 647.748086 
L 297.399125 647.449523 
L 300.413223 647.12342 
L 303.427321 646.768135 
L 306.44142 646.381976 
L 309.455518 645.963205 
L 312.469616 645.510035 
L 315.483714 645.020631 
L 318.497812 644.493114 
L 321.511911 643.925552 
L 324.526009 643.315969 
L 327.540107 642.66234 
L 330.554205 641.962594 
L 333.568303 641.214609 
L 336.582402 640.41622 
L 339.5965 639.565209 
L 342.610598 638.659316 
L 345.624696 637.696228 
L 348.638794 636.673588 
L 351.652893 635.588991 
L 354.666991 634.439983 
L 357.681089 633.224062 
L 360.695187 631.938681 
L 363.709285 630.581243 
L 366.723384 629.149104 
L 369.737482 627.639572 
L 372.75158 626.049909 
L 375.765678 624.377326 
L 378.779776 622.618991 
L 381.793875 620.772021 
L 384.807973 618.833486 
L 387.822071 616.800408 
L 390.836169 614.669763 
L 393.850267 612.438477 
L 396.864366 610.103432 
L 399.878464 607.661458 
L 402.892562 605.10934 
L 405.90666 602.443815 
L 408.920758 599.661572 
L 411.934857 596.759252 
L 414.948955 593.73345 
L 417.963053 590.580711 
L 420.977151 587.297534 
L 423.991249 583.880371 
L 427.005348 580.325623 
L 430.019446 576.629648 
L 433.033544 572.788753 
L 436.047642 568.799198 
L 439.06174 564.657196 
L 442.075839 560.358912 
L 445.089937 555.900465 
L 448.104035 551.277923 
L 451.118133 546.487308 
L 454.132231 541.524596 
L 457.14633 536.385713 
L 460.160428 531.066539 
L 463.174526 525.562905 
L 466.188624 519.870595 
L 469.202722 513.985345 
L 472.216821 507.902845 
L 475.230919 501.618735 
L 478.245017 495.128609 
L 481.259115 488.428013 
L 484.273213 481.512444 
L 487.287312 474.377354 
L 490.30141 467.018145 
L 493.315508 459.430172 
" style="fill:none;stroke:#ff7f0e;stroke-linecap:square;stroke-width:1.5;"/>
   </g>
   <g id="line2d_64">
    <g clip-path="url(#p8ee946d5ac)">
     <use style="fill:#2ca02c;stroke:#2ca02c;" x="194.919786" xlink:href="#m7e91c02dc6" y="639.476551"/>
     <use style="fill:#2ca02c;stroke:#2ca02c;" x="228.074866" xlink:href="#m7e91c02dc6" y="636.496546"/>
     <use style="fill:#2ca02c;stroke:#2ca02c;" x="261.229947" xlink:href="#m7e91c02dc6" y="628.70067"/>
     <use style="fill:#2ca02c;stroke:#2ca02c;" x="294.385027" xlink:href="#m7e91c02dc6" y="640.842707"/>
     <use style="fill:#2ca02c;stroke:#2ca02c;" x="327.540107" xlink:href="#m7e91c02dc6" y="652.297444"/>
     <use style="fill:#2ca02c;stroke:#2ca02c;" x="360.695187" xlink:href="#m7e91c02dc6" y="644.377398"/>
     <use style="fill:#2ca02c;stroke:#2ca02c;" x="393.850267" xlink:href="#m7e91c02dc6" y="624.913462"/>
     <use style="fill:#2ca02c;stroke:#2ca02c;" x="427.005348" xlink:href="#m7e91c02dc6" y="569.141723"/>
     <use style="fill:#2ca02c;stroke:#2ca02c;" x="460.160428" xlink:href="#m7e91c02dc6" y="542.988803"/>
     <use style="fill:#2ca02c;stroke:#2ca02c;" x="493.315508" xlink:href="#m7e91c02dc6" y="467.120571"/>
    </g>
   </g>
   <g id="patch_18">
    <path d="M 180 708.75 
L 180 430.772727 
" style="fill:none;stroke:#000000;stroke-linecap:square;stroke-linejoin:miter;stroke-width:0.8;"/>
   </g>
   <g id="patch_19">
    <path d="M 508.235294 708.75 
L 508.235294 430.772727 
" style="fill:none;stroke:#000000;stroke-linecap:square;stroke-linejoin:miter;stroke-width:0.8;"/>
   </g>
   <g id="patch_20">
    <path d="M 180 708.75 
L 508.235294 708.75 
" style="fill:none;stroke:#000000;stroke-linecap:square;stroke-linejoin:miter;stroke-width:0.8;"/>
   </g>
   <g id="patch_21">
    <path d="M 180 430.772727 
L 508.235294 430.772727 
" style="fill:none;stroke:#000000;stroke-linecap:square;stroke-linejoin:miter;stroke-width:0.8;"/>
   </g>
  </g>
  <g id="axes_5">
   <g id="patch_22">
    <path d="M 573.882353 708.75 
L 902.117647 708.75 
L 902.117647 430.772727 
L 573.882353 430.772727 
z
" style="fill:#ffffff;"/>
   </g>
   <g id="matplotlib.axis_9">
    <g id="xtick_25">
     <g id="line2d_65">
      <g>
       <use style="stroke:#000000;stroke-width:0.8;" x="588.802139" xlink:href="#m875beb27f0" y="708.75"/>
      </g>
     </g>
     <g id="text_21">
      <!-- 0.0 -->
      <g transform="translate(580.850577 723.348437)scale(0.1 -0.1)">
       <use xlink:href="#DejaVuSans-30"/>
       <use x="63.623047" xlink:href="#DejaVuSans-2e"/>
       <use x="95.410156" xlink:href="#DejaVuSans-30"/>
      </g>
     </g>
    </g>
    <g id="xtick_26">
     <g id="line2d_66">
      <g>
       <use style="stroke:#000000;stroke-width:0.8;" x="648.481283" xlink:href="#m875beb27f0" y="708.75"/>
      </g>
     </g>
     <g id="text_22">
      <!-- 0.2 -->
      <g transform="translate(640.529721 723.348437)scale(0.1 -0.1)">
       <use xlink:href="#DejaVuSans-30"/>
       <use x="63.623047" xlink:href="#DejaVuSans-2e"/>
       <use x="95.410156" xlink:href="#DejaVuSans-32"/>
      </g>
     </g>
    </g>
    <g id="xtick_27">
     <g id="line2d_67">
      <g>
       <use style="stroke:#000000;stroke-width:0.8;" x="708.160428" xlink:href="#m875beb27f0" y="708.75"/>
      </g>
     </g>
     <g id="text_23">
      <!-- 0.4 -->
      <g transform="translate(700.208865 723.348437)scale(0.1 -0.1)">
       <use xlink:href="#DejaVuSans-30"/>
       <use x="63.623047" xlink:href="#DejaVuSans-2e"/>
       <use x="95.410156" xlink:href="#DejaVuSans-34"/>
      </g>
     </g>
    </g>
    <g id="xtick_28">
     <g id="line2d_68">
      <g>
       <use style="stroke:#000000;stroke-width:0.8;" x="767.839572" xlink:href="#m875beb27f0" y="708.75"/>
      </g>
     </g>
     <g id="text_24">
      <!-- 0.6 -->
      <g transform="translate(759.88801 723.348437)scale(0.1 -0.1)">
       <use xlink:href="#DejaVuSans-30"/>
       <use x="63.623047" xlink:href="#DejaVuSans-2e"/>
       <use x="95.410156" xlink:href="#DejaVuSans-36"/>
      </g>
     </g>
    </g>
    <g id="xtick_29">
     <g id="line2d_69">
      <g>
       <use style="stroke:#000000;stroke-width:0.8;" x="827.518717" xlink:href="#m875beb27f0" y="708.75"/>
      </g>
     </g>
     <g id="text_25">
      <!-- 0.8 -->
      <g transform="translate(819.567154 723.348437)scale(0.1 -0.1)">
       <use xlink:href="#DejaVuSans-30"/>
       <use x="63.623047" xlink:href="#DejaVuSans-2e"/>
       <use x="95.410156" xlink:href="#DejaVuSans-38"/>
      </g>
     </g>
    </g>
    <g id="xtick_30">
     <g id="line2d_70">
      <g>
       <use style="stroke:#000000;stroke-width:0.8;" x="887.197861" xlink:href="#m875beb27f0" y="708.75"/>
      </g>
     </g>
     <g id="text_26">
      <!-- 1.0 -->
      <g transform="translate(879.246298 723.348437)scale(0.1 -0.1)">
       <use xlink:href="#DejaVuSans-31"/>
       <use x="63.623047" xlink:href="#DejaVuSans-2e"/>
       <use x="95.410156" xlink:href="#DejaVuSans-30"/>
      </g>
     </g>
    </g>
   </g>
   <g id="matplotlib.axis_10">
    <g id="ytick_29">
     <g id="line2d_71">
      <g>
       <use style="stroke:#000000;stroke-width:0.8;" x="573.882353" xlink:href="#m47bfc3ed47" y="688.236438"/>
      </g>
     </g>
    </g>
    <g id="ytick_30">
     <g id="line2d_72">
      <g>
       <use style="stroke:#000000;stroke-width:0.8;" x="573.882353" xlink:href="#m47bfc3ed47" y="650.10206"/>
      </g>
     </g>
    </g>
    <g id="ytick_31">
     <g id="line2d_73">
      <g>
       <use style="stroke:#000000;stroke-width:0.8;" x="573.882353" xlink:href="#m47bfc3ed47" y="611.967683"/>
      </g>
     </g>
    </g>
    <g id="ytick_32">
     <g id="line2d_74">
      <g>
       <use style="stroke:#000000;stroke-width:0.8;" x="573.882353" xlink:href="#m47bfc3ed47" y="573.833305"/>
      </g>
     </g>
    </g>
    <g id="ytick_33">
     <g id="line2d_75">
      <g>
       <use style="stroke:#000000;stroke-width:0.8;" x="573.882353" xlink:href="#m47bfc3ed47" y="535.698927"/>
      </g>
     </g>
    </g>
    <g id="ytick_34">
     <g id="line2d_76">
      <g>
       <use style="stroke:#000000;stroke-width:0.8;" x="573.882353" xlink:href="#m47bfc3ed47" y="497.56455"/>
      </g>
     </g>
    </g>
    <g id="ytick_35">
     <g id="line2d_77">
      <g>
       <use style="stroke:#000000;stroke-width:0.8;" x="573.882353" xlink:href="#m47bfc3ed47" y="459.430172"/>
      </g>
     </g>
    </g>
   </g>
   <g id="line2d_78">
    <path clip-path="url(#pda246e4ee2)" d="M 588.802139 637.282307 
L 591.816237 608.226967 
L 594.830335 595.812861 
L 597.844434 594.940395 
L 600.858532 601.572578 
L 603.87263 612.575333 
L 606.886728 625.575124 
L 609.900826 638.832622 
L 612.914925 651.131136 
L 615.929023 661.678655 
L 618.943121 670.022354 
L 621.957219 675.974511 
L 624.971317 679.548824 
L 627.985416 680.906155 
L 630.999514 680.308827 
L 634.013612 678.082596 
L 637.02771 674.585516 
L 640.041808 670.182938 
L 643.055907 665.227936 
L 646.070005 660.046521 
L 649.084103 654.927002 
L 652.098201 650.112955 
L 655.112299 645.799259 
L 658.126398 642.130711 
L 661.140496 639.202782 
L 664.154594 637.06411 
L 667.168692 635.720343 
L 670.18279 635.139012 
L 673.196889 635.255127 
L 676.210987 635.977226 
L 679.225085 637.193638 
L 682.239183 638.778755 
L 685.253281 640.599132 
L 688.26738 642.519259 
L 691.281478 644.406886 
L 694.295576 646.137788 
L 697.309674 647.599892 
L 700.323772 648.696721 
L 703.337871 649.35009 
L 706.351969 649.502065 
L 709.366067 649.116152 
L 712.380165 648.177753 
L 715.394263 646.693908 
L 718.408362 644.69236 
L 721.42246 642.219997 
L 724.436558 639.340749 
L 727.450656 636.132986 
L 730.464754 632.686516 
L 733.478853 629.099267 
L 736.492951 625.473734 
L 739.507049 621.9133 
L 742.521147 618.518506 
L 745.535246 615.383396 
L 748.549344 612.592003 
L 751.563442 610.215092 
L 754.57754 608.307246 
L 757.591638 606.904368 
L 760.605737 606.021696 
L 763.619835 605.652398 
L 766.633933 605.766801 
L 769.648031 606.312319 
L 772.662129 607.214109 
L 775.676228 608.376499 
L 778.690326 609.685179 
L 781.704424 611.010175 
L 784.718522 612.209568 
L 787.73262 613.133927 
L 790.746719 613.631403 
L 793.760817 613.553387 
L 796.774915 612.760646 
L 799.789013 611.129797 
L 802.803111 608.559976 
L 805.81721 604.979515 
L 808.831308 600.352415 
L 811.845406 594.684389 
L 814.859504 588.028197 
L 817.873602 580.487968 
L 820.887701 572.22218 
L 823.901799 563.444924 
L 826.915897 554.425045 
L 829.929995 545.482707 
L 832.944093 536.982909 
L 835.958192 529.325416 
L 838.97229 522.930533 
L 841.986388 518.220122 
L 845.000486 515.593199 
L 848.014584 515.395398 
L 851.028683 517.881565 
L 854.042781 523.17067 
L 857.056879 531.192196 
L 860.070977 541.623089 
L 863.085075 553.814324 
L 866.099174 566.70607 
L 869.113272 578.73038 
L 872.12737 587.700305 
L 875.141468 590.684212 
L 878.155566 583.864095 
L 881.169665 562.376554 
L 884.183763 520.135079 
L 887.197861 449.632211 
" style="fill:none;stroke:#1f77b4;stroke-linecap:square;stroke-width:1.5;"/>
   </g>
   <g id="line2d_79">
    <path clip-path="url(#pda246e4ee2)" d="M 588.802139 650.10206 
L 591.816237 650.102058 
L 594.830335 650.102029 
L 597.844434 650.1019 
L 600.858532 650.101552 
L 603.87263 650.10082 
L 606.886728 650.099488 
L 609.900826 650.097295 
L 612.914925 650.09393 
L 615.929023 650.089037 
L 618.943121 650.082211 
L 621.957219 650.072999 
L 624.971317 650.060901 
L 627.985416 650.045369 
L 630.999514 650.025807 
L 634.013612 650.001573 
L 637.02771 649.971976 
L 640.041808 649.936277 
L 643.055907 649.89369 
L 646.070005 649.843382 
L 649.084103 649.784471 
L 652.098201 649.716029 
L 655.112299 649.637078 
L 658.126398 649.546595 
L 661.140496 649.443507 
L 664.154594 649.326696 
L 667.168692 649.194994 
L 670.18279 649.047185 
L 673.196889 648.882009 
L 676.210987 648.698155 
L 679.225085 648.494264 
L 682.239183 648.268933 
L 685.253281 648.020707 
L 688.26738 647.748086 
L 691.281478 647.449523 
L 694.295576 647.12342 
L 697.309674 646.768135 
L 700.323772 646.381976 
L 703.337871 645.963205 
L 706.351969 645.510035 
L 709.366067 645.020631 
L 712.380165 644.493114 
L 715.394263 643.925552 
L 718.408362 643.315969 
L 721.42246 642.66234 
L 724.436558 641.962594 
L 727.450656 641.214609 
L 730.464754 640.41622 
L 733.478853 639.565209 
L 736.492951 638.659316 
L 739.507049 637.696228 
L 742.521147 636.673588 
L 745.535246 635.588991 
L 748.549344 634.439983 
L 751.563442 633.224062 
L 754.57754 631.938681 
L 757.591638 630.581243 
L 760.605737 629.149104 
L 763.619835 627.639572 
L 766.633933 626.049909 
L 769.648031 624.377326 
L 772.662129 622.618991 
L 775.676228 620.772021 
L 778.690326 618.833486 
L 781.704424 616.800408 
L 784.718522 614.669763 
L 787.73262 612.438477 
L 790.746719 610.103432 
L 793.760817 607.661458 
L 796.774915 605.10934 
L 799.789013 602.443815 
L 802.803111 599.661572 
L 805.81721 596.759252 
L 808.831308 593.73345 
L 811.845406 590.580711 
L 814.859504 587.297534 
L 817.873602 583.880371 
L 820.887701 580.325623 
L 823.901799 576.629648 
L 826.915897 572.788753 
L 829.929995 568.799198 
L 832.944093 564.657196 
L 835.958192 560.358912 
L 838.97229 555.900465 
L 841.986388 551.277923 
L 845.000486 546.487308 
L 848.014584 541.524596 
L 851.028683 536.385713 
L 854.042781 531.066539 
L 857.056879 525.562905 
L 860.070977 519.870595 
L 863.085075 513.985345 
L 866.099174 507.902845 
L 869.113272 501.618735 
L 872.12737 495.128609 
L 875.141468 488.428013 
L 878.155566 481.512444 
L 881.169665 474.377354 
L 884.183763 467.018145 
L 887.197861 459.430172 
" style="fill:none;stroke:#ff7f0e;stroke-linecap:square;stroke-width:1.5;"/>
   </g>
   <g id="line2d_80">
    <g clip-path="url(#pda246e4ee2)">
     <use style="fill:#2ca02c;stroke:#2ca02c;" x="588.802139" xlink:href="#m7e91c02dc6" y="637.282307"/>
     <use style="fill:#2ca02c;stroke:#2ca02c;" x="621.957219" xlink:href="#m7e91c02dc6" y="675.974511"/>
     <use style="fill:#2ca02c;stroke:#2ca02c;" x="655.112299" xlink:href="#m7e91c02dc6" y="645.799259"/>
     <use style="fill:#2ca02c;stroke:#2ca02c;" x="688.26738" xlink:href="#m7e91c02dc6" y="642.519259"/>
     <use style="fill:#2ca02c;stroke:#2ca02c;" x="721.42246" xlink:href="#m7e91c02dc6" y="642.219997"/>
     <use style="fill:#2ca02c;stroke:#2ca02c;" x="754.57754" xlink:href="#m7e91c02dc6" y="608.307246"/>
     <use style="fill:#2ca02c;stroke:#2ca02c;" x="787.73262" xlink:href="#m7e91c02dc6" y="613.133927"/>
     <use style="fill:#2ca02c;stroke:#2ca02c;" x="820.887701" xlink:href="#m7e91c02dc6" y="572.22218"/>
     <use style="fill:#2ca02c;stroke:#2ca02c;" x="854.042781" xlink:href="#m7e91c02dc6" y="523.17067"/>
     <use style="fill:#2ca02c;stroke:#2ca02c;" x="887.197861" xlink:href="#m7e91c02dc6" y="449.632211"/>
    </g>
   </g>
   <g id="patch_23">
    <path d="M 573.882353 708.75 
L 573.882353 430.772727 
" style="fill:none;stroke:#000000;stroke-linecap:square;stroke-linejoin:miter;stroke-width:0.8;"/>
   </g>
   <g id="patch_24">
    <path d="M 902.117647 708.75 
L 902.117647 430.772727 
" style="fill:none;stroke:#000000;stroke-linecap:square;stroke-linejoin:miter;stroke-width:0.8;"/>
   </g>
   <g id="patch_25">
    <path d="M 573.882353 708.75 
L 902.117647 708.75 
" style="fill:none;stroke:#000000;stroke-linecap:square;stroke-linejoin:miter;stroke-width:0.8;"/>
   </g>
   <g id="patch_26">
    <path d="M 573.882353 430.772727 
L 902.117647 430.772727 
" style="fill:none;stroke:#000000;stroke-linecap:square;stroke-linejoin:miter;stroke-width:0.8;"/>
   </g>
  </g>
  <g id="axes_6">
   <g id="patch_27">
    <path d="M 967.764706 708.75 
L 1296 708.75 
L 1296 430.772727 
L 967.764706 430.772727 
z
" style="fill:#ffffff;"/>
   </g>
   <g id="matplotlib.axis_11">
    <g id="xtick_31">
     <g id="line2d_81">
      <g>
       <use style="stroke:#000000;stroke-width:0.8;" x="982.684492" xlink:href="#m875beb27f0" y="708.75"/>
      </g>
     </g>
     <g id="text_27">
      <!-- 0.0 -->
      <g transform="translate(974.732929 723.348437)scale(0.1 -0.1)">
       <use xlink:href="#DejaVuSans-30"/>
       <use x="63.623047" xlink:href="#DejaVuSans-2e"/>
       <use x="95.410156" xlink:href="#DejaVuSans-30"/>
      </g>
     </g>
    </g>
    <g id="xtick_32">
     <g id="line2d_82">
      <g>
       <use style="stroke:#000000;stroke-width:0.8;" x="1042.363636" xlink:href="#m875beb27f0" y="708.75"/>
      </g>
     </g>
     <g id="text_28">
      <!-- 0.2 -->
      <g transform="translate(1034.412074 723.348437)scale(0.1 -0.1)">
       <use xlink:href="#DejaVuSans-30"/>
       <use x="63.623047" xlink:href="#DejaVuSans-2e"/>
       <use x="95.410156" xlink:href="#DejaVuSans-32"/>
      </g>
     </g>
    </g>
    <g id="xtick_33">
     <g id="line2d_83">
      <g>
       <use style="stroke:#000000;stroke-width:0.8;" x="1102.042781" xlink:href="#m875beb27f0" y="708.75"/>
      </g>
     </g>
     <g id="text_29">
      <!-- 0.4 -->
      <g transform="translate(1094.091218 723.348437)scale(0.1 -0.1)">
       <use xlink:href="#DejaVuSans-30"/>
       <use x="63.623047" xlink:href="#DejaVuSans-2e"/>
       <use x="95.410156" xlink:href="#DejaVuSans-34"/>
      </g>
     </g>
    </g>
    <g id="xtick_34">
     <g id="line2d_84">
      <g>
       <use style="stroke:#000000;stroke-width:0.8;" x="1161.721925" xlink:href="#m875beb27f0" y="708.75"/>
      </g>
     </g>
     <g id="text_30">
      <!-- 0.6 -->
      <g transform="translate(1153.770363 723.348437)scale(0.1 -0.1)">
       <use xlink:href="#DejaVuSans-30"/>
       <use x="63.623047" xlink:href="#DejaVuSans-2e"/>
       <use x="95.410156" xlink:href="#DejaVuSans-36"/>
      </g>
     </g>
    </g>
    <g id="xtick_35">
     <g id="line2d_85">
      <g>
       <use style="stroke:#000000;stroke-width:0.8;" x="1221.40107" xlink:href="#m875beb27f0" y="708.75"/>
      </g>
     </g>
     <g id="text_31">
      <!-- 0.8 -->
      <g transform="translate(1213.449507 723.348437)scale(0.1 -0.1)">
       <use xlink:href="#DejaVuSans-30"/>
       <use x="63.623047" xlink:href="#DejaVuSans-2e"/>
       <use x="95.410156" xlink:href="#DejaVuSans-38"/>
      </g>
     </g>
    </g>
    <g id="xtick_36">
     <g id="line2d_86">
      <g>
       <use style="stroke:#000000;stroke-width:0.8;" x="1281.080214" xlink:href="#m875beb27f0" y="708.75"/>
      </g>
     </g>
     <g id="text_32">
      <!-- 1.0 -->
      <g transform="translate(1273.128651 723.348437)scale(0.1 -0.1)">
       <use xlink:href="#DejaVuSans-31"/>
       <use x="63.623047" xlink:href="#DejaVuSans-2e"/>
       <use x="95.410156" xlink:href="#DejaVuSans-30"/>
      </g>
     </g>
    </g>
   </g>
   <g id="matplotlib.axis_12">
    <g id="ytick_36">
     <g id="line2d_87">
      <g>
       <use style="stroke:#000000;stroke-width:0.8;" x="967.764706" xlink:href="#m47bfc3ed47" y="688.236438"/>
      </g>
     </g>
    </g>
    <g id="ytick_37">
     <g id="line2d_88">
      <g>
       <use style="stroke:#000000;stroke-width:0.8;" x="967.764706" xlink:href="#m47bfc3ed47" y="650.10206"/>
      </g>
     </g>
    </g>
    <g id="ytick_38">
     <g id="line2d_89">
      <g>
       <use style="stroke:#000000;stroke-width:0.8;" x="967.764706" xlink:href="#m47bfc3ed47" y="611.967683"/>
      </g>
     </g>
    </g>
    <g id="ytick_39">
     <g id="line2d_90">
      <g>
       <use style="stroke:#000000;stroke-width:0.8;" x="967.764706" xlink:href="#m47bfc3ed47" y="573.833305"/>
      </g>
     </g>
    </g>
    <g id="ytick_40">
     <g id="line2d_91">
      <g>
       <use style="stroke:#000000;stroke-width:0.8;" x="967.764706" xlink:href="#m47bfc3ed47" y="535.698927"/>
      </g>
     </g>
    </g>
    <g id="ytick_41">
     <g id="line2d_92">
      <g>
       <use style="stroke:#000000;stroke-width:0.8;" x="967.764706" xlink:href="#m47bfc3ed47" y="497.56455"/>
      </g>
     </g>
    </g>
    <g id="ytick_42">
     <g id="line2d_93">
      <g>
       <use style="stroke:#000000;stroke-width:0.8;" x="967.764706" xlink:href="#m47bfc3ed47" y="459.430172"/>
      </g>
     </g>
    </g>
   </g>
   <g id="line2d_94">
    <path clip-path="url(#pe45966e397)" d="M 982.684492 641.479762 
L 985.69859 578.338989 
L 988.712688 541.541886 
L 991.726787 524.60283 
L 994.740885 522.17184 
L 997.754983 529.88709 
L 1000.769081 544.241541 
L 1003.783179 562.462719 
L 1006.797278 582.404754 
L 1009.811376 602.451781 
L 1012.825474 621.431903 
L 1015.839572 638.540888 
L 1018.85367 653.274873 
L 1021.867769 665.371343 
L 1024.881867 674.757696 
L 1027.895965 681.506758 
L 1030.910063 685.798619 
L 1033.924161 687.888227 
L 1036.93826 688.078164 
L 1039.952358 686.696116 
L 1042.966456 684.076521 
L 1045.980554 680.545968 
L 1048.994652 676.411882 
L 1052.008751 671.954136 
L 1055.022849 667.419179 
L 1058.036947 663.016362 
L 1061.051045 658.916123 
L 1064.065143 655.249745 
L 1067.079242 652.11041 
L 1070.09334 649.555305 
L 1073.107438 647.608545 
L 1076.121536 646.264718 
L 1079.135634 645.492857 
L 1082.149733 645.240685 
L 1085.163831 645.43898 
L 1088.177929 646.005927 
L 1091.192027 646.851364 
L 1094.206125 647.880808 
L 1097.220224 648.999198 
L 1100.234322 650.114274 
L 1103.24842 651.139569 
L 1106.262518 651.996942 
L 1109.276616 652.618659 
L 1112.290715 652.948989 
L 1115.304813 652.945321 
L 1118.318911 652.578801 
L 1121.333009 651.834523 
L 1124.347107 650.711265 
L 1127.361206 649.220843 
L 1130.375304 647.387078 
L 1133.389402 645.244451 
L 1136.4035 642.836479 
L 1139.417598 640.213862 
L 1142.431697 637.432461 
L 1145.445795 634.551161 
L 1148.459893 631.629676 
L 1151.473991 628.726355 
L 1154.488089 625.89605 
L 1157.502188 623.18809 
L 1160.516286 620.644435 
L 1163.530384 618.298048 
L 1166.544482 616.171531 
L 1169.55858 614.276081 
L 1172.572679 612.610795 
L 1175.586777 611.16235 
L 1178.600875 609.905101 
L 1181.614973 608.801593 
L 1184.629071 607.803512 
L 1187.64317 606.853057 
L 1190.657268 605.884741 
L 1193.671366 604.827573 
L 1196.685464 603.607612 
L 1199.699562 602.15082 
L 1202.713661 600.386169 
L 1205.727759 598.248919 
L 1208.741857 595.683973 
L 1211.755955 592.649201 
L 1214.770053 589.118612 
L 1217.784152 585.085222 
L 1220.79825 580.563464 
L 1223.812348 575.590947 
L 1226.826446 570.229377 
L 1229.840544 564.564398 
L 1232.854643 558.704118 
L 1235.868741 552.776048 
L 1238.882839 546.92216 
L 1241.896937 541.29175 
L 1244.911035 536.031749 
L 1247.925134 531.274136 
L 1250.939232 527.120027 
L 1253.95333 523.620047 
L 1256.967428 520.750495 
L 1259.981526 518.384854 
L 1262.995625 516.260105 
L 1266.009723 513.937307 
L 1269.023821 510.755881 
L 1272.037919 505.780953 
L 1275.052018 497.74315 
L 1278.066116 484.970135 
L 1281.080214 465.309189 
" style="fill:none;stroke:#1f77b4;stroke-linecap:square;stroke-width:1.5;"/>
   </g>
   <g id="line2d_95">
    <path clip-path="url(#pe45966e397)" d="M 982.684492 650.10206 
L 985.69859 650.102058 
L 988.712688 650.102029 
L 991.726787 650.1019 
L 994.740885 650.101552 
L 997.754983 650.10082 
L 1000.769081 650.099488 
L 1003.783179 650.097295 
L 1006.797278 650.09393 
L 1009.811376 650.089037 
L 1012.825474 650.082211 
L 1015.839572 650.072999 
L 1018.85367 650.060901 
L 1021.867769 650.045369 
L 1024.881867 650.025807 
L 1027.895965 650.001573 
L 1030.910063 649.971976 
L 1033.924161 649.936277 
L 1036.93826 649.89369 
L 1039.952358 649.843382 
L 1042.966456 649.784471 
L 1045.980554 649.716029 
L 1048.994652 649.637078 
L 1052.008751 649.546595 
L 1055.022849 649.443507 
L 1058.036947 649.326696 
L 1061.051045 649.194994 
L 1064.065143 649.047185 
L 1067.079242 648.882009 
L 1070.09334 648.698155 
L 1073.107438 648.494264 
L 1076.121536 648.268933 
L 1079.135634 648.020707 
L 1082.149733 647.748086 
L 1085.163831 647.449523 
L 1088.177929 647.12342 
L 1091.192027 646.768135 
L 1094.206125 646.381976 
L 1097.220224 645.963205 
L 1100.234322 645.510035 
L 1103.24842 645.020631 
L 1106.262518 644.493114 
L 1109.276616 643.925552 
L 1112.290715 643.315969 
L 1115.304813 642.66234 
L 1118.318911 641.962594 
L 1121.333009 641.214609 
L 1124.347107 640.41622 
L 1127.361206 639.565209 
L 1130.375304 638.659316 
L 1133.389402 637.696228 
L 1136.4035 636.673588 
L 1139.417598 635.588991 
L 1142.431697 634.439983 
L 1145.445795 633.224062 
L 1148.459893 631.938681 
L 1151.473991 630.581243 
L 1154.488089 629.149104 
L 1157.502188 627.639572 
L 1160.516286 626.049909 
L 1163.530384 624.377326 
L 1166.544482 622.618991 
L 1169.55858 620.772021 
L 1172.572679 618.833486 
L 1175.586777 616.800408 
L 1178.600875 614.669763 
L 1181.614973 612.438477 
L 1184.629071 610.103432 
L 1187.64317 607.661458 
L 1190.657268 605.10934 
L 1193.671366 602.443815 
L 1196.685464 599.661572 
L 1199.699562 596.759252 
L 1202.713661 593.73345 
L 1205.727759 590.580711 
L 1208.741857 587.297534 
L 1211.755955 583.880371 
L 1214.770053 580.325623 
L 1217.784152 576.629648 
L 1220.79825 572.788753 
L 1223.812348 568.799198 
L 1226.826446 564.657196 
L 1229.840544 560.358912 
L 1232.854643 555.900465 
L 1235.868741 551.277923 
L 1238.882839 546.487308 
L 1241.896937 541.524596 
L 1244.911035 536.385713 
L 1247.925134 531.066539 
L 1250.939232 525.562905 
L 1253.95333 519.870595 
L 1256.967428 513.985345 
L 1259.981526 507.902845 
L 1262.995625 501.618735 
L 1266.009723 495.128609 
L 1269.023821 488.428013 
L 1272.037919 481.512444 
L 1275.052018 474.377354 
L 1278.066116 467.018145 
L 1281.080214 459.430172 
" style="fill:none;stroke:#ff7f0e;stroke-linecap:square;stroke-width:1.5;"/>
   </g>
   <g id="line2d_96">
    <g clip-path="url(#pe45966e397)">
     <use style="fill:#2ca02c;stroke:#2ca02c;" x="982.684492" xlink:href="#m7e91c02dc6" y="641.479762"/>
     <use style="fill:#2ca02c;stroke:#2ca02c;" x="1015.839572" xlink:href="#m7e91c02dc6" y="638.540888"/>
     <use style="fill:#2ca02c;stroke:#2ca02c;" x="1048.994652" xlink:href="#m7e91c02dc6" y="676.411882"/>
     <use style="fill:#2ca02c;stroke:#2ca02c;" x="1082.149733" xlink:href="#m7e91c02dc6" y="645.240685"/>
     <use style="fill:#2ca02c;stroke:#2ca02c;" x="1115.304813" xlink:href="#m7e91c02dc6" y="652.945321"/>
     <use style="fill:#2ca02c;stroke:#2ca02c;" x="1148.459893" xlink:href="#m7e91c02dc6" y="631.629676"/>
     <use style="fill:#2ca02c;stroke:#2ca02c;" x="1181.614973" xlink:href="#m7e91c02dc6" y="608.801593"/>
     <use style="fill:#2ca02c;stroke:#2ca02c;" x="1214.770053" xlink:href="#m7e91c02dc6" y="589.118612"/>
     <use style="fill:#2ca02c;stroke:#2ca02c;" x="1247.925134" xlink:href="#m7e91c02dc6" y="531.274136"/>
     <use style="fill:#2ca02c;stroke:#2ca02c;" x="1281.080214" xlink:href="#m7e91c02dc6" y="465.309189"/>
    </g>
   </g>
   <g id="patch_28">
    <path d="M 967.764706 708.75 
L 967.764706 430.772727 
" style="fill:none;stroke:#000000;stroke-linecap:square;stroke-linejoin:miter;stroke-width:0.8;"/>
   </g>
   <g id="patch_29">
    <path d="M 1296 708.75 
L 1296 430.772727 
" style="fill:none;stroke:#000000;stroke-linecap:square;stroke-linejoin:miter;stroke-width:0.8;"/>
   </g>
   <g id="patch_30">
    <path d="M 967.764706 708.75 
L 1296 708.75 
" style="fill:none;stroke:#000000;stroke-linecap:square;stroke-linejoin:miter;stroke-width:0.8;"/>
   </g>
   <g id="patch_31">
    <path d="M 967.764706 430.772727 
L 1296 430.772727 
" style="fill:none;stroke:#000000;stroke-linecap:square;stroke-linejoin:miter;stroke-width:0.8;"/>
   </g>
  </g>
 </g>
 <defs>
  <clipPath id="pbd347c21c5">
   <rect height="277.977273" width="328.235294" x="180" y="97.2"/>
  </clipPath>
  <clipPath id="p8200885964">
   <rect height="277.977273" width="328.235294" x="573.882353" y="97.2"/>
  </clipPath>
  <clipPath id="p4c00236794">
   <rect height="277.977273" width="328.235294" x="967.764706" y="97.2"/>
  </clipPath>
  <clipPath id="p8ee946d5ac">
   <rect height="277.977273" width="328.235294" x="180" y="430.772727"/>
  </clipPath>
  <clipPath id="pda246e4ee2">
   <rect height="277.977273" width="328.235294" x="573.882353" y="430.772727"/>
  </clipPath>
  <clipPath id="pe45966e397">
   <rect height="277.977273" width="328.235294" x="967.764706" y="430.772727"/>
  </clipPath>
 </defs>
</svg>
